<?xml version="1.0" encoding="UTF-8"?>
<svg width="43px" height="51px" viewBox="0 0 43 51" version="1.1" xmlns="http://www.w3.org/2000/svg" xmlns:xlink="http://www.w3.org/1999/xlink">
    <!-- Generator: Sketch 42 (36781) - http://www.bohemiancoding.com/sketch -->
    <title>q4U0Q4.tif</title>
    <desc>Created with Sketch.</desc>
    <defs></defs>
    <g id="Page-1" stroke="none" stroke-width="1" fill="none" fill-rule="evenodd">
        <g id="dashboard_sansNumbers" transform="translate(-1416.000000, -565.000000)" fill-rule="nonzero">
            <g id="Layer_172" transform="translate(1416.000000, 565.000000)">
                <g id="q4U0Q4.tif">
                    <path d="M18.32,40.16 C28.3952841,40.1654965 36.5689195,32.005254 36.5799452,21.9299744 C36.590971,11.8546948 28.4352154,3.6765824 18.3599434,3.66002735 C8.28467137,3.6434723 0.102084317,11.7947386 0.08,21.87 C0.0689449767,31.9563452 8.23366234,40.1434439 18.32,40.16 L18.32,40.16 Z" id="Shape" fill="#FFFFFF"></path>
                    <path d="M42.31,23.27 C42.19,24.1 42.11,24.94 41.94,25.75 C40.11,34.5 35.02,40.51 26.66,43.69 C24.2616967,44.5732806 21.7427683,45.0858336 19.19,45.21 L18.93,45.21 L18.93,48.63 L24.43,48.63 C24.7574155,48.5842991 25.0887754,48.6804679 25.340853,48.8943519 C25.5929305,49.1082359 25.7417745,49.4195128 25.75,49.75 C25.75,50.45 25.24,50.91 24.42,50.91 L11.11,50.91 C10.29,50.91 9.77,50.46 9.78,49.76 C9.79,49.06 10.3,48.63 11.13,48.63 L16.59,48.63 L16.59,45.27 C15.59,45.14 14.65,45.04 13.68,44.87 C11.153404,44.4285013 8.7234738,43.5485822 6.5,42.27 C6.03030291,42.0372956 5.76385475,41.5286218 5.84,41.01 C5.91047982,40.535816 6.29317732,40.1695786 6.77,40.12 C7.06690294,40.0954977 7.36475024,40.1543745 7.63,40.29 C10.9089571,42.1324766 14.6310515,43.0387858 18.39,42.91 C25.8,42.63 31.94,39.79 36.28,33.62 C38.8130891,30.1047621 40.1361082,25.8619769 40.05,21.53 C39.9345676,16.9973453 38.3716853,12.620574 35.59,9.04 C33.7389947,6.551601 31.410229,4.4574117 28.74,2.88 C28.3498375,2.71336541 28.0873206,2.34058061 28.0619109,1.91708534 C28.0365012,1.49359008 28.252561,1.09209069 28.62,0.88 C29.0384906,0.625271858 29.5703282,0.653054416 29.96,0.95 C32.2557904,2.3091827 34.3242479,4.01996233 36.09,6.02 C39.1545616,9.41483893 41.2085913,13.5991018 42.02,18.1 C42.16,18.89 42.24,19.69 42.35,20.49 L42.31,23.27 Z" id="Shape" fill="#000000"></path>
                    <path d="M18.32,40.16 C10.9331251,40.1518338 4.27965664,35.6915315 1.46596188,28.8615161 C-1.34773288,22.0315008 0.233311706,14.1789065 5.47093855,8.96994757 C10.7085654,3.76098863 18.5697188,2.22306629 25.3841886,5.07420476 C32.1986583,7.92534322 36.6223763,14.6031915 36.59,21.99 C36.5404494,32.0434571 28.3735777,40.1656279 18.32,40.16 L18.32,40.16 Z" id="Shape" fill="#000000"></path>
                </g>
            </g>
        </g>
    </g>
</svg>