<?xml version="1.0" encoding="UTF-8"?>
<svg width="110px" height="61px" viewBox="0 0 110 61" version="1.1" xmlns="http://www.w3.org/2000/svg" xmlns:xlink="http://www.w3.org/1999/xlink">
    <!-- Generator: Sketch 42 (36781) - http://www.bohemiancoding.com/sketch -->
    <title>Fish_Icon</title>
    <desc>Created with Sketch.</desc>
    <defs></defs>
    <g id="Page-1" stroke="none" stroke-width="1" fill="none" fill-rule="evenodd">
        <g id="dashboard_sansNumbers" transform="translate(-1127.000000, -752.000000)" fill-rule="nonzero">
            <g id="Fish_Icon" transform="translate(1127.000000, 752.000000)">
                <g id="ysHYok.tif">
                    <path d="M80.23,23.09 C79.42,19.27 76.56,17.24 73.36,15.63 C71.2537405,14.5720589 69.0788534,13.6566686 66.85,12.89 C63.09,11.59 59.27,10.5 55.5,9.25 C53.43,8.56 53.02,7.8 53.18,5.59 C53.2495751,4.94581876 53.269634,4.29724956 53.24,3.65 C53.03,1.13 50.87,-0.14 48.67,1.12 C47.170887,1.94698742 45.8026768,2.99168 44.61,4.22 C42.1019299,6.87926806 39.7289433,9.66277129 37.5,12.56 C36.4107861,14.1294958 34.7475577,15.2071815 32.87,15.56 C23.4,17.56 14.66,21.64 5.87,25.46 C5.11323218,25.8115937 4.39868537,26.247702 3.74,26.76 C1.38900543,28.2778854 0.377706055,31.204462 1.29,33.85 C1.65626393,35.2743282 2.33999458,36.597347 3.29,37.72 C4.94137316,39.4599611 6.80225501,40.9883027 8.83,42.27 C13.57,45.19 18.89,46.65 24.27,47.9 C25.0218216,48.0843525 25.7117019,48.4637866 26.27,49 C28.59,51.26 30.85,53.59 33.09,55.92 C33.99,56.86 34.98,57.47 36.29,56.98 C37.6,56.49 37.83,55.3 37.96,54.04 C38.09,52.78 38.37,51.24 38.57,49.93 C41.24,49.53 43.47,49.7 45.07,51.93 C45.6385862,52.6030347 46.2679068,53.2223129 46.95,53.78 C49.05,55.78 51.15,57.83 53.26,59.85 C53.9642592,60.6407203 55.1089687,60.865574 56.06,60.4 C56.9985533,60.0268265 57.5858393,59.0871689 57.51,58.08 C57.4861336,57.3404715 57.4227096,56.6027501 57.32,55.87 C56.98,53.5 56.62,51.14 56.26,48.78 C58.53,48.17 60.59,47.65 62.62,47.03 C63.2525927,46.7578427 63.9889005,46.9975709 64.34,47.59 C68.1788391,52.0109652 72.9638348,55.5108478 78.34,57.83 C78.5503321,57.9235128 78.7676629,58.0004144 78.99,58.06 C80.69,58.54 81.86,57.76 81.99,56 C82.0178687,55.0767369 81.9609635,54.152864 81.82,53.24 C81.51,50.97 80.97,48.75 81.68,46.4 C82.258135,44.5409322 81.4137946,42.5356238 79.68,41.65 C79.4679088,41.4875127 79.2674213,41.3104154 79.08,41.12 C79.52,41.02 79.77,40.94 80.08,40.9 C83.0833529,40.5060909 86.1354461,41.0362831 88.83,42.42 C94.43,45.18 100.04,47.92 105.63,50.69 C106.75,51.25 107.83,51.53 108.82,50.55 C109.81,49.57 109.66,48.42 109.06,47.24 C107.22,43.61 105.43,39.96 103.59,36.32 C102.157016,33.6572157 102.157016,30.4527843 103.59,27.79 C105.43,24.11 107.22,20.4 109.07,16.73 C109.66,15.56 109.87,14.43 108.88,13.41 C107.89,12.39 106.73,12.71 105.57,13.28 C100.02,16.03 94.45,18.75 88.89,21.49 C86.2319335,22.8879033 83.2120844,23.4458431 80.23,23.09 Z" id="Shape" fill="#000000"></path>
                    <path d="M80.23,23.09 C83.1751293,23.4375719 86.1568252,22.8941787 88.79,21.53 C94.35,18.79 99.92,16.07 105.47,13.32 C106.62,12.75 107.74,12.38 108.78,13.45 C109.82,14.52 109.56,15.6 108.97,16.77 C107.12,20.45 105.33,24.15 103.49,27.83 C102.057016,30.4927843 102.057016,33.6972157 103.49,36.36 C105.32,39.99 107.11,43.65 108.96,47.28 C109.56,48.47 109.73,49.59 108.72,50.59 C107.71,51.59 106.65,51.29 105.53,50.73 C99.94,47.95 94.33,45.21 88.73,42.46 C86.0354461,41.0762831 82.9833529,40.5460909 79.98,40.94 C79.72,40.94 79.47,41.06 78.98,41.16 C79.1674213,41.3504154 79.3679088,41.5275127 79.58,41.69 C81.3137946,42.5756238 82.158135,44.5809322 81.58,46.44 C80.87,48.79 81.4,51.01 81.72,53.28 C81.8609635,54.192864 81.9178687,55.1167369 81.89,56.04 C81.81,57.8 80.64,58.58 78.89,58.1 C78.6676629,58.0404144 78.4503321,57.9635128 78.24,57.87 C72.8638348,55.5508478 68.0788391,52.0509652 64.24,47.63 C63.8889005,47.0375709 63.1525927,46.7978427 62.52,47.07 C60.52,47.69 58.43,48.2 56.16,48.82 C56.51,51.18 56.88,53.54 57.22,55.91 C57.3227096,56.6427501 57.3861336,57.3804715 57.41,58.12 C57.4858393,59.1271689 56.8985533,60.0668265 55.96,60.44 C55.0089687,60.905574 53.8642592,60.6807203 53.16,59.89 C51.05,57.89 48.95,55.89 46.85,53.82 C46.1679068,53.2623129 45.5385862,52.6430347 44.97,51.97 C43.37,49.71 41.14,49.54 38.47,49.97 C38.27,51.28 37.99,52.67 37.86,54.08 C37.73,55.49 37.53,56.52 36.19,57.02 C34.85,57.52 33.89,56.9 32.99,55.96 C30.74,53.62 28.48,51.3 26.17,49.04 C25.6117019,48.5037866 24.9218216,48.1243525 24.17,47.94 C18.79,46.69 13.47,45.23 8.73,42.31 C6.70225501,41.0283027 4.84137316,39.4999611 3.19,37.76 C2.23999458,36.637347 1.55626393,35.3143282 1.19,33.89 C0.277706055,31.244462 1.28900543,28.3178854 3.64,26.8 C4.29868537,26.287702 5.01323218,25.8515937 5.77,25.5 C14.59,21.68 23.33,17.61 32.77,15.6 C34.6475577,15.2471815 36.3107861,14.1694958 37.4,12.6 C39.6289433,9.70277129 42.0019299,6.91926806 44.51,4.26 C45.7026768,3.03168 47.070887,1.98698742 48.57,1.16 C50.77,-0.1 52.93,1.16 53.14,3.69 C53.169634,4.33724956 53.1495751,4.98581876 53.08,5.63 C52.92,7.83 53.34,8.63 55.4,9.29 C59.17,10.54 63,11.64 66.75,12.93 C68.9788534,13.6966686 71.1537405,14.6120589 73.26,15.67 C76.56,17.27 79.42,19.27 80.23,23.09 Z M85.77,25.38 C82.1239328,26.2502625 78.2909651,25.8662612 74.89,24.29 C71.97,23.02 68.99,21.87 66,20.76 C54.75,16.6 43.3,15.32 31.55,18.46 C23.03,20.74 15.01,24.31 6.96,27.82 C6.413661,28.069698 5.89429211,28.3746178 5.41,28.73 C3.87597771,29.6457906 3.1788921,31.5005363 3.73,33.2 C4.10383664,35.0369336 5.18030932,36.6552309 6.73,37.71 C9.25085237,39.4754827 11.9288081,41.0052649 14.73,42.28 C21.92,45.28 29.57,46.45 37.3,47.04 C42.6504633,47.5544981 48.0437422,47.4134534 53.36,46.62 C60.3087031,45.3387314 67.073019,43.2059903 73.5,40.27 C77.5,38.51 81.59,37.42 86.11,38.69 C86.6710768,34.2617018 86.5564367,29.7738764 85.77,25.38 Z M88.35,24.65 C89.1445474,29.2974232 89.2892654,34.0327304 88.78,38.72 C88.8161988,39.2010193 89.080037,39.6357949 89.49,39.89 C94.74,42.52 100.02,45.1 105.29,47.68 C105.64,47.85 106,47.98 106.61,48.24 C106.29,47.58 106.1,47.17 105.89,46.77 C104.29,43.64 102.67,40.52 101.1,37.38 C99.3793351,34.1257805 99.3532111,30.2370431 101.03,26.96 C102.34,24.25 103.68,21.57 105.03,18.87 L106.41,16.08 L106.2,15.89 L88.35,24.65 Z M77.03,22.33 L77.29,21.95 C76.3990315,20.9357744 75.3921492,20.0295804 74.29,19.25 C71.8941397,17.8656947 69.3930911,16.6720124 66.81,15.68 C62.74,14.18 58.53,13.05 54.43,11.68 C51.43,10.68 50.43,8.92 50.5,5.75 L50.5,3.43 C48.12,3.79 41.01,11 39.58,14.43 C52.99,12.84 65.08,17.27 77.03,22.33 Z M79.38,55.58 C79.38,54.98 79.38,54.66 79.31,54.35 C78.91,51.53 78.06,48.74 79.09,45.86 C79.2055478,45.2458244 78.9978957,44.615317 78.54,44.19 C77.11,43.63 75.46,42.75 74.12,43.05 C71.47,43.65 68.97,44.95 66.25,46.05 C69.92,50.21 74.34,53.06 79.37,55.58 L79.38,55.58 Z M46.7,49.96 L55,57.96 L53.68,49.33 L46.7,49.96 Z M35.34,54.36 L35.85,49.61 L30.2,48.96 L30.08,49.22 L35.34,54.36 Z" id="Shape" fill="#000000"></path>
                    <path d="M85.77,25.38 C86.5515518,29.7917143 86.6560856,34.2967836 86.08,38.74 C81.57,37.47 77.52,38.56 73.47,40.32 C67.0698151,43.2352389 60.3361999,45.3543966 53.42,46.63 C48.1037422,47.4234534 42.7104633,47.5644981 37.36,47.05 C29.63,46.46 21.99,45.3 14.79,42.29 C11.9888081,41.0152649 9.31085237,39.4854827 6.79,37.72 C5.24030932,36.6652309 4.16383664,35.0469336 3.79,33.21 C3.2388921,31.5105363 3.93597771,29.6557906 5.47,28.74 C5.95429211,28.3846178 6.473661,28.079698 7.02,27.83 C15.02,24.32 23.09,20.75 31.61,18.47 C43.36,15.33 54.81,16.6 66.06,20.77 C69.06,21.88 72.06,23.03 74.95,24.3 C78.3345729,25.8592519 82.144,26.2394905 85.77,25.38 Z M80.44,31.38 L80.54,31.04 L81.09,31.04 C82,31.04 82.99,31.09 83.09,29.86 C83.19,28.63 82.17,28.58 81.2,28.4 C78.9719594,28.0714278 76.7722401,27.5733151 74.62,26.91 C69.82,25.27 65.09,23.42 60.33,21.65 C59.48,21.33 58.7,21.41 58.33,22.33 C57.96,23.25 58.62,23.82 59.52,24.15 C64.16,25.84 68.77,27.61 73.43,29.26 C75.74,30.08 78.11,30.66 80.44,31.35 L80.44,31.38 Z M43.57,19.27 L43.57,19.12 C40.69,19.54 37.78,19.78 34.95,20.41 C31.71,21.13 28.54,22.15 25.37,23.14 C24.8278665,23.4123387 24.4095943,23.8806606 24.2,24.45 C24.1,24.69 24.53,25.45 24.84,25.51 C25.4128466,25.6184097 26.0035764,25.5840649 26.56,25.41 C30.36,24.41 34.12,23.33 37.96,22.53 C40.2784543,22.1753248 42.6158803,21.9582781 44.96,21.88 C45.81,21.81 46.52,21.39 46.3,20.52 C46.18,20.02 45.48,19.58 44.94,19.31 C44.57,19.13 44.03,19.27 43.57,19.27 Z M23.87,31.71 C23.890682,29.0037368 22.8495158,26.397231 20.97,24.45 C20.7368855,24.1197746 20.3653176,23.9145624 19.9616703,23.8931126 C19.5580231,23.8716627 19.1667992,24.03634 18.9,24.34 C18.27,25.01 18.55,25.63 19.09,26.34 C19.7514355,27.0460591 20.2738859,27.8704451 20.63,28.77 C21.74,32.43 21.76,35.96 18.99,39.06 C18.6836754,39.5603618 18.6535184,40.1823506 18.91,40.71 C19.456195,41.0187958 20.1100299,41.0735864 20.7,40.86 C21.2228414,40.5595041 21.6520864,40.1198742 21.94,39.59 C23.38,37.46 23.89,35.1 23.87,31.72 L23.87,31.71 Z M13,33.83 C13.8663393,33.8406668 14.7012894,33.5060308 15.320462,32.8999922 C15.9396346,32.2939535 16.2920926,31.4663689 16.3,30.6 C16.2837168,28.8008168 14.8291832,27.3462832 13.03,27.33 C11.2350746,27.33 9.78,28.7850746 9.78,30.58 C9.78,32.3749254 11.2350746,33.83 13.03,33.83 L13,33.83 Z" id="Shape" fill="#FFFFFF"></path>
                    <path d="M88.35,24.65 L106.19,15.89 L106.4,16.08 L105.02,18.87 C103.69,21.57 102.34,24.25 101.02,26.96 C99.3432111,30.2370431 99.3693351,34.1257805 101.09,37.38 C102.66,40.52 104.28,43.64 105.88,46.77 C106.08,47.17 106.27,47.58 106.6,48.24 C105.99,47.98 105.6,47.85 105.28,47.68 C100.01,45.1 94.73,42.52 89.48,39.89 C89.070037,39.6357949 88.8061988,39.2010193 88.77,38.72 C89.2825685,34.0331932 89.1412161,29.2978879 88.35,24.65 Z M93.22,27.65 C93.4484914,27.6211281 93.6711313,27.5570348 93.88,27.46 C95.6,26.07 97.35,24.7 98.99,23.21 C99.2085179,22.7359139 99.1629943,22.182044 98.87,21.75 C98.4317167,21.4121953 97.8526365,21.3181888 97.33,21.5 C95.65,22.72 94.05,24.05 92.5,25.44 C92.2292353,25.846843 92.1592547,26.355123 92.31,26.82 C92.4,27.16 92.92,27.38 93.21,27.63 L93.22,27.65 Z M93.31,33.52 C92.92,33.87 92.31,34.16 92.31,34.52 C92.2527472,35.082116 92.4300395,35.6429386 92.8,36.07 C94.08,37.26 95.49,38.32 96.8,39.44 C97.53,40.05 98.32,40.31 98.96,39.44 C99.6,38.57 99.17,37.98 98.47,37.44 C97.14,36.37 95.83,35.28 94.47,34.21 C94.0976569,33.942424 93.7066602,33.7018106 93.3,33.49 L93.31,33.52 Z M95.8,29.32 C95.0246452,29.231238 94.2408332,29.248058 93.47,29.37 C92.93,29.53 92.53,30.16 92.07,30.58 C92.5,31.02 92.9,31.8 93.37,31.85 C94.9261762,32.004468 96.4938238,32.004468 98.05,31.85 C98.5,31.85 99.28,31 99.22,30.69 C99.0257207,30.0918461 98.5747424,29.6115359 97.99,29.38 C97.26669,29.2303925 96.524626,29.1932893 95.79,29.27 L95.8,29.32 Z" id="Shape" fill="#FFFFFF"></path>
                    <path d="M77.03,22.33 C65.09,17.22 53.03,12.83 39.61,14.4 C41.04,10.95 48.15,3.74 50.53,3.4 L50.53,5.72 C50.43,8.89 51.47,10.62 54.46,11.65 C58.56,13.07 62.77,14.2 66.84,15.65 C69.4230911,16.6420124 71.9241397,17.8356947 74.32,19.22 C75.4221492,19.9995804 76.4290315,20.9057744 77.32,21.92 L77.03,22.33 Z" id="Shape" fill="#000000"></path>
                    <path d="M79.37,55.58 C74.37,53.06 69.92,50.21 66.24,46.02 C68.96,44.95 71.46,43.65 74.11,43.02 C75.44,42.72 77.11,43.6 78.53,44.16 C78.9878957,44.585317 79.1955478,45.2158244 79.08,45.83 C78.08,48.71 78.9,51.5 79.3,54.32 C79.34,54.66 79.34,54.98 79.37,55.58 Z" id="Shape" fill="#000000"></path>
                    <polygon id="Shape" fill="#000000" points="46.69 49.96 53.69 49.31 55.01 57.94"></polygon>
                    <polygon id="Shape" fill="#000000" points="35.33 54.36 30.07 49.22 30.19 48.96 35.84 49.61"></polygon>
                    <path d="M80.44,31.35 C78.11,30.67 75.74,30.08 73.44,29.28 C68.78,27.64 64.17,25.87 59.53,24.17 C58.63,23.84 57.98,23.37 58.34,22.35 C58.7,21.33 59.44,21.35 60.34,21.67 C65.1,23.44 69.83,25.28 74.63,26.93 C76.7822401,27.5933151 78.9819594,28.0914278 81.21,28.42 C82.21,28.59 83.21,28.58 83.1,29.88 C82.99,31.18 82.04,31.08 81.1,31.06 L80.55,31.06 L80.44,31.35 Z" id="Shape" fill="#000000"></path>
                    <path d="M43.57,19.27 C44.03,19.27 44.57,19.12 44.94,19.27 C45.48,19.54 46.18,19.99 46.3,20.48 C46.52,21.35 45.81,21.77 44.96,21.84 C42.6158803,21.9182781 40.2784543,22.1353248 37.96,22.49 C34.13,23.29 30.36,24.41 26.56,25.37 C26.0035764,25.5440649 25.4128466,25.5784097 24.84,25.47 C24.53,25.38 24.1,24.65 24.2,24.41 C24.4095943,23.8406606 24.8278665,23.3723387 25.37,23.1 C28.54,22.1 31.71,21.1 34.95,20.37 C37.78,19.74 40.69,19.49 43.57,19.08 L43.57,19.27 Z" id="Shape" fill="#000000"></path>
                    <path d="M23.87,31.72 C23.87,35.09 23.38,37.46 21.92,39.55 C21.6320864,40.0798742 21.2028414,40.5195041 20.68,40.82 C20.0900299,41.0335864 19.436195,40.9787958 18.89,40.67 C18.6335184,40.1423506 18.6636754,39.5203618 18.97,39.02 C21.74,35.92 21.73,32.4 20.61,28.73 C20.2538859,27.8304451 19.7314355,27.0060591 19.07,26.3 C18.53,25.64 18.25,25.01 18.88,24.3 C19.1467992,23.99634 19.5380231,23.8316627 19.9416703,23.8531126 C20.3453176,23.8745624 20.7168855,24.0797746 20.95,24.41 C22.8490322,26.3663888 23.8985003,28.993653 23.87,31.72 L23.87,31.72 Z" id="Shape" fill="#000000"></path>
                    <path d="M13.01,33.84 C11.2150746,33.84 9.76,32.3849254 9.76,30.59 C9.76,28.7950746 11.2150746,27.34 13.01,27.34 C14.8091832,27.3562832 16.2637168,28.8108168 16.28,30.61 C16.2635114,32.4026267 14.8026939,33.8455749 13.01,33.84 L13.01,33.84 Z" id="Shape" fill="#000000"></path>
                    <path d="M93.21,27.63 C92.92,27.39 92.4,27.16 92.29,26.81 C92.1392547,26.345123 92.2092353,25.836843 92.48,25.43 C94.03,24.05 95.63,22.71 97.31,21.49 C97.8326365,21.3081888 98.4117167,21.4021953 98.85,21.74 C99.1429943,22.172044 99.1885179,22.7259139 98.97,23.2 C97.33,24.68 95.59,26.05 93.86,27.45 C93.6537124,27.5426079 93.4345395,27.6033019 93.21,27.63 Z" id="Shape" fill="#000000"></path>
                    <path d="M93.3,33.49 C93.7157549,33.6876626 94.1167854,33.9149132 94.5,34.17 C95.84,35.23 97.15,36.33 98.5,37.4 C99.2,37.96 99.57,38.66 98.99,39.4 C98.41,40.14 97.56,39.99 96.83,39.4 C95.48,38.28 94.08,37.22 92.83,36.03 C92.4600395,35.6029386 92.2827472,35.042116 92.34,34.48 C92.31,34.13 92.91,33.84 93.3,33.49 Z" id="Shape" fill="#000000"></path>
                    <path d="M95.79,29.27 C96.5187318,29.177058 97.2574503,29.1972968 97.98,29.33 C98.5647424,29.5615359 99.0157207,30.0418461 99.21,30.64 C99.28,30.95 98.5,31.75 98.04,31.8 C96.4838238,31.954468 94.9161762,31.954468 93.36,31.8 C92.89,31.8 92.49,30.98 92.06,30.53 C92.52,30.11 92.92,29.48 93.46,29.32 C94.2307666,29.1973146 95.0146799,29.1804924 95.79,29.27 Z" id="Shape" fill="#000000"></path>
                </g>
            </g>
        </g>
    </g>
</svg>