<?xml version="1.0" encoding="UTF-8"?>
<svg width="39px" height="66px" viewBox="0 0 39 66" version="1.1" xmlns="http://www.w3.org/2000/svg" xmlns:xlink="http://www.w3.org/1999/xlink">
    <!-- Generator: Sketch 42 (36781) - http://www.bohemiancoding.com/sketch -->
    <title>OJu5wD.tif</title>
    <desc>Created with Sketch.</desc>
    <defs></defs>
    <g id="Page-1" stroke="none" stroke-width="1" fill="none" fill-rule="evenodd">
        <g id="dashboard_sansNumbers" transform="translate(-1158.000000, -75.000000)" fill-rule="nonzero">
            <g id="Leaf_Icon" transform="translate(1158.000000, 75.000000)">
                <g id="OJu5wD.tif">
                    <path d="M4.62,0.27 C5.88,1.27 7.2,2.27 8.38,3.42 C10.43,5.36 12.45,7.33 14.38,9.42 C18.33,13.55 22.64,17.29 26.85,21.14 C30.1396331,24.0180753 33.0167253,27.3359851 35.4,31 C38.1113706,35.1408677 39.3673814,40.0664006 38.97,45 C38.5841494,48.9340737 37.3673138,52.7413716 35.4,56.17 C35.2487892,56.4804805 35.1831981,56.8256971 35.21,57.17 C35.3,58.77 35.47,60.36 35.55,61.96 C35.4011751,63.4735127 34.3552672,64.7483363 32.9,65.19 C32.51,65.27 32.28,65.13 32.23,64.73 C32.18,64.33 32.14,64.05 32.12,63.73 C32.07,62.27 32.01,60.81 32,59.35 C32.0203823,58.9081049 31.7876612,58.4930856 31.4,58.28 C30.0593122,57.4754855 28.5751918,56.9388927 27.03,56.7 C22.5685766,55.9069714 18.2991122,54.2711353 14.45,51.88 C6.84,46.98 2.32,40.1 1.2,31.05 C0.798890543,27.2061897 0.738655696,23.3344276 1.02,19.48 C1.24285196,14.7864071 1.75381419,10.1109357 2.55,5.48 C2.80000961,4.16466257 3.11708997,2.86296425 3.5,1.58 C3.69061184,1.12222793 3.93571333,0.689103371 4.23,0.29 L4.62,0.27 Z M31.86,56.51 C31.71,55.27 31.59,54.06 31.42,52.86 C31.1842173,50.6081815 30.6806598,48.3925283 29.92,46.26 C27.9706862,41.6238583 24.422271,37.8412476 19.92,35.6 L19.34,35.26 L19.44,35.09 C22.1635874,36.0089297 24.6857681,37.4414469 26.87,39.31 C23.8397704,34.107803 19.5956556,29.7161564 14.5,26.51 C25.09,32.28 32.02,40.86 34.5,52.81 C34.57,52.51 34.6,52.23 34.65,51.96 C35.1414448,49.4644569 35.3593987,46.922779 35.3,44.38 C35.2627164,40.0063639 33.9184715,35.7437843 31.44,32.14 C30.08,30.24 28.64,28.38 27.14,26.59 C23.639596,22.5831885 19.8887432,18.8022754 15.91,15.27 C12.5806762,12.3532133 9.44095771,9.22685526 6.51,5.91 C6.31435853,5.73717017 6.09558822,5.5924452 5.86,5.48 C5.6974505,5.7101396 5.56942937,5.96281287 5.48,6.23 C5.2,7.79 4.97,9.35 4.7,10.91 C3.57426143,17.3119785 3.54720789,23.8589367 4.62,30.27 C5.5722096,36.6085044 8.78697017,42.387969 13.67,46.54 C17.0073467,49.3649427 20.8061727,51.5941736 24.9,53.13 C27.2724878,53.9227259 29.5238464,55.0399921 31.59,56.45 C31.59,56.45 31.7,56.5 31.86,56.53 L31.86,56.51 Z" id="Shape" fill="#000000"></path>
                    <path d="M31.86,56.53 L31.59,56.53 C29.5238464,55.1199921 27.2724878,54.0027259 24.9,53.21 C20.8061727,51.6741736 17.0073467,49.4449427 13.67,46.62 C8.78697017,42.467969 5.5722096,36.6885044 4.62,30.35 C3.54720789,23.9389367 3.57426143,17.3919785 4.7,10.99 C4.97,9.43 5.2,7.87 5.48,6.31 C5.56942937,6.04281287 5.6974505,5.7901396 5.86,5.56 C6.09558822,5.6724452 6.31435853,5.81717017 6.51,5.99 C9.44095771,9.30685526 12.5806762,12.4332133 15.91,15.35 C19.9149464,18.8668288 23.6925463,22.6344086 27.22,26.63 C28.73,28.42 30.17,30.27 31.52,32.18 C33.9984715,35.7837843 35.3427164,40.0463639 35.38,44.42 C35.4393987,46.962779 35.2214448,49.5044569 34.73,52 C34.73,52.27 34.65,52.55 34.58,52.85 C32.05,40.85 25.13,32.32 14.58,26.55 C19.6792177,29.7646071 23.9236343,34.1668598 26.95,39.38 C24.7657681,37.5114469 22.2435874,36.0789297 19.52,35.16 L19.42,35.33 L20,35.67 C24.502271,37.9112476 28.0506862,41.6938583 30,46.33 C30.7606598,48.4625283 31.2642173,50.6781815 31.5,52.93 C31.59,54.08 31.71,55.27 31.86,56.53 Z" id="Shape" fill="#FFFFFF"></path>
                </g>
            </g>
        </g>
    </g>
</svg>