<?xml version="1.0" encoding="UTF-8"?>
<svg width="69px" height="53px" viewBox="0 0 69 53" version="1.1" xmlns="http://www.w3.org/2000/svg" xmlns:xlink="http://www.w3.org/1999/xlink">
    <!-- Generator: Sketch 42 (36781) - http://www.bohemiancoding.com/sketch -->
    <title>Mollusk_Icon</title>
    <desc>Created with Sketch.</desc>
    <defs></defs>
    <g id="Page-1" stroke="none" stroke-width="1" fill="none" fill-rule="evenodd">
        <g id="dashboard_sansNumbers" transform="translate(-1142.000000, -417.000000)" fill-rule="nonzero" fill="#000000">
            <g id="Mollusk_Icon" transform="translate(1142.000000, 417.000000)">
                <path d="M19.09,51.37 L19.54,49.13 C27.5700017,50.8074118 35.888438,50.4949984 43.77,48.22 L42.86,47.95 L41.86,47.63 C27.35,42.73 26.02,27.38 30.71,19.42 C33.77,14.24 38.21,11.14 44.36,11.16 C47.9955185,11.0845577 51.5029452,12.503175 54.0637828,15.0848018 C56.6246205,17.6664286 58.0148335,21.1852103 57.91,24.82 C57.9308341,27.7122552 56.7928249,30.4924549 54.75,32.54 C51.13,36.1 45.02,36.03 41.92,32.41 C39.753361,29.7711316 39.4164749,26.0772739 41.07,23.09 C42.0354686,21.2740122 43.87693,20.0918395 45.93,19.97 C48.5195517,19.8435414 50.7378245,21.8044946 50.93,24.39 C51.0186028,26.1666522 49.8435516,27.7598711 48.12,28.2 L47.52,26.35 L48.02,26 C48.7473426,25.6252994 49.0616134,24.7523248 48.74,24 C48.5322684,23.3053387 48.0489791,22.7261311 47.4027523,22.397349 C46.7565254,22.0685669 46.0038064,22.0189282 45.32,22.26 C43.3878734,22.9518865 42.1204703,24.8085916 42.18,26.86 C41.96,30.97 45.58,33.86 49.79,32.91 C53.63,32.06 56.03,28.64 55.87,24.27 C55.5,14.68 45.51,11.02 38.78,14.59 C34.7907806,16.6251408 31.9667537,20.3905099 31.13,24.79 C29.8151207,29.9865247 30.9176019,35.4989307 34.13,39.79 C37.08,43.71 41.22,45.7 45.95,46.61 C51.17,47.61 55.47,45.51 59.26,42.31 C66.26,36.4 68.17,26.31 64.13,17.59 C61.0776088,10.7969341 55.0446217,5.80577332 47.8,4.08 C36.87,1.08 26.6,2.53 17.43,9.5 C11.67,13.89 8.02,19.81 5.64,26.57 C4.12104896,31.0040037 3.15704631,35.6090476 2.77,40.28 C2.79698006,40.6350615 2.96213888,40.9653791 3.23,41.2 C6.34135707,44.0279553 9.97643591,46.2191944 13.93,47.65 L15.06,48.08 L14.44,50.15 C13.87,49.95 13.35,49.78 12.84,49.58 C8.28557651,47.9158562 4.15899635,45.2581746 0.76,41.8 C0.493159537,41.5326357 0.333137263,41.1770307 0.31,40.8 C0.738072401,34.5776075 2.18042427,28.4670349 4.58,22.71 C8.83,12.95 15.65,5.87 25.88,2.37 C28.7483154,1.39666653 31.7357021,0.818028574 34.76,0.65 C34.9571537,0.620889063 35.1512755,0.574032078 35.34,0.51 L39.34,0.51 C41.07,0.74 42.81,0.9 44.51,1.23 C51.95,2.67 58.39,5.85 63.04,12.08 C69.45,20.66 69.71,32.08 63.62,40.33 C60.0061235,45.2640636 54.4810824,48.4476779 48.4,49.1 C48.0273542,49.1470434 47.6615181,49.2376633 47.31,49.37 C40.7751144,51.828572 33.7825374,52.8318993 26.82,52.31" id="Shape"></path>
            </g>
        </g>
    </g>
</svg>