<?xml version="1.0" encoding="UTF-8"?>
<svg width="480px" height="691px" viewBox="0 0 480 691" version="1.1" xmlns="http://www.w3.org/2000/svg" xmlns:xlink="http://www.w3.org/1999/xlink">
    <!-- Generator: Sketch 42 (36781) - http://www.bohemiancoding.com/sketch -->
    <title>waterlevel</title>
    <desc>Created with Sketch.</desc>
    <defs></defs>
    <g id="Page-1" stroke="none" stroke-width="1" fill="none" fill-rule="evenodd">
        <g id="waterlevel" fill-rule="nonzero" fill="#72C4D6">
            <path d="M0,96.3992412 C0,96.3992412 19.2939331,101.382582 39.916996,96.3992412 C60.540059,91.4159004 59.8754941,85 79.8339921,85 C99.7924901,85 99.7924901,96.3992412 119.750988,96.3992412 C139.709486,96.3992412 139.709486,85 159.667984,85 C179.626482,85 179.626482,96.3992412 199.58498,96.3992412 C219.543478,96.3992412 219.543478,85 239.501976,85 C259.460474,85 259.460474,96.3992412 279.418972,96.3992412 C299.37747,96.3992412 299.37747,85 319.335968,85 C339.294466,85 339.294466,96.3992412 359.252964,96.3992412 C379.211462,96.3992412 379.211462,85 399.16996,85 C419.128458,85 419.793023,91.7370703 439.086957,96.3992412 C458.38089,101.061412 479.003953,96.3992412 479.003953,96.3992412 L479.003953,690.297641 L0,690.297641 L0,96.3992412 Z" id="Rectangle-path"></path>
        </g>
    </g>
</svg>