<?xml version="1.0" encoding="UTF-8"?>
<svg width="46px" height="46px" viewBox="0 0 46 46" version="1.1" xmlns="http://www.w3.org/2000/svg" xmlns:xlink="http://www.w3.org/1999/xlink">
    <!-- Generator: Sketch 42 (36781) - http://www.bohemiancoding.com/sketch -->
    <title>qEEXb2.tif</title>
    <desc>Created with Sketch.</desc>
    <defs></defs>
    <g id="Page-1" stroke="none" stroke-width="1" fill="none" fill-rule="evenodd">
        <g id="dashboard_sansNumbers" transform="translate(-1414.000000, -326.000000)" fill-rule="nonzero">
            <g id="Layer_210" transform="translate(1414.000000, 326.000000)">
                <g id="qEEXb2.tif">
                    <path d="M39.74,26.27 L44.35,26.27 C44.9028986,26.3474557 45.4408432,26.0518321 45.6718685,25.5435766 C45.9028937,25.0353211 45.7719068,24.4356377 45.35,24.07 L24.5,0.76 C24.1961433,0.316161284 23.6928863,0.0508012815 23.155,0.0508012815 C22.6171137,0.0508012815 22.1138567,0.316161284 21.81,0.76 L1,24.11 C0.596850769,24.4795759 0.478153709,25.0670263 0.706185301,25.5641352 C0.934216893,26.0612441 1.45690007,26.3544834 2,26.29 L6.64,26.29 L6.64,26.81 L6.64,43.4 C6.56983392,44.0866066 6.81308112,44.7682374 7.30208315,45.255299 C7.79108518,45.7423605 8.4736778,45.9828956 9.16,45.91 L37.23,45.91 C37.9158915,45.9807596 38.5969607,45.7373158 39.082587,45.2478045 C39.5682132,44.7582933 39.8062226,44.0753059 39.73,43.39 L39.73,26.8 L39.74,26.27 Z" id="Shape" fill="#FFFFFF"></path>
                    <path d="M39.74,26.27 L39.74,26.78 L39.74,43.37 C39.8162226,44.0553059 39.5782132,44.7382933 39.092587,45.2278045 C38.6069607,45.7173158 37.9258915,45.9607596 37.24,45.89 L9.17,45.89 C8.4836778,45.9628956 7.80108518,45.7223605 7.31208315,45.235299 C6.82308112,44.7482374 6.57983392,44.0666066 6.65,43.38 L6.65,26.79 L6.65,26.27 L2.01,26.27 C1.46690007,26.3344834 0.944216893,26.0412441 0.716185301,25.5441352 C0.488153709,25.0470263 0.606850769,24.4595759 1.01,24.09 L21.82,0.74 C22.1238567,0.296161284 22.6271137,0.0308012815 23.165,0.0308012815 C23.7028863,0.0308012815 24.2061433,0.296161284 24.51,0.74 L45.3,24.06 C45.7219068,24.4256377 45.8528937,25.0253211 45.6218685,25.5335766 C45.3908432,26.0418321 44.8528986,26.3374557 44.3,26.26 C42.83,26.27 41.32,26.27 39.74,26.27 Z M13.66,35.39 L13.66,35.45 L13.35,35.63 C12.3292316,36.1746197 11.617006,37.1599265 11.42,38.3 C11.344118,38.8968249 11.3140301,39.4985825 11.33,40.1 C11.33,40.83 11.46,40.97 12.19,40.97 L34.5,40.97 C34.662536,40.9820909 34.822275,40.9227707 34.9375228,40.8075228 C35.0527707,40.692275 35.1120909,40.532536 35.1,40.37 L35.1,39.09 C35.1054531,37.6366551 34.3043531,36.3002046 33.02,35.62 L32.72,35.44 C33.3472669,34.9742352 33.7477463,34.2644433 33.8220887,33.486707 C33.8964312,32.7089707 33.6376708,31.9361632 33.11,31.36 C32.0894264,30.2938111 30.4062616,30.2317998 29.31,31.22 C28.07,32.36 28.15,33.87 29.52,35.43 L28.23,36.36 C27.5546471,35.1538469 26.5666573,34.1520391 25.37,33.46 C26.4683198,32.6658216 27.0378305,31.3296997 26.8501731,29.9873844 C26.6625158,28.6450691 25.7484183,27.5163575 24.47441,27.0538334 C23.2004017,26.5913094 21.7750947,26.8707089 20.77,27.78 C20.0201875,28.3983743 19.5603392,29.2999667 19.5,30.27 C19.437051,31.5335634 20.025817,32.7412885 21.06,33.47 C19.7728993,34.0315622 18.747082,35.0609538 18.19,36.35 L16.83,35.35 C18.21,33.8 18.28,32.25 17.01,31.12 C16.262423,30.4541875 15.2086796,30.254739 14.2694871,30.6012864 C13.3302945,30.9478338 12.6586487,31.7839239 12.5227106,32.7757397 C12.3867726,33.7675554 12.8086868,34.7535287 13.62,35.34 L13.66,35.39 Z" id="Shape" fill="#000000"></path>
                    <path d="M13.66,35.4 C12.8486868,34.8135287 12.4267726,33.8275554 12.5627106,32.8357397 C12.6986487,31.8439239 13.3702945,31.0078338 14.3094871,30.6612864 C15.2486796,30.314739 16.302423,30.5141875 17.05,31.18 C18.32,32.32 18.25,33.86 16.87,35.41 L18.23,36.41 C18.787082,35.1209538 19.8128993,34.0915622 21.1,33.53 C20.0318554,32.7991296 19.4247078,31.5620664 19.5,30.27 C19.5315161,29.2916521 19.9701384,28.3709077 20.71,27.73 C21.7150947,26.8207089 23.1404017,26.5413094 24.41441,27.0038334 C25.6884183,27.4663575 26.6025158,28.5950691 26.7901731,29.9373844 C26.9778305,31.2796997 26.4083198,32.6158216 25.31,33.41 C26.5066573,34.1020391 27.4946471,35.1038469 28.17,36.31 L29.46,35.38 C28.09,33.82 28.02,32.31 29.25,31.17 C30.3462616,30.1817998 32.0294264,30.2438111 33.05,31.31 C33.5776708,31.8861632 33.8364312,32.6589707 33.7620887,33.436707 C33.6877463,34.2144433 33.2872669,34.9242352 32.66,35.39 L32.96,35.57 C34.2443531,36.2502046 35.0454531,37.5866551 35.04,39.04 L35.04,40.32 C35.0520909,40.482536 34.9927707,40.642275 34.8775228,40.7575228 C34.762275,40.8727707 34.602536,40.9320909 34.44,40.92 L12.11,40.92 C11.39,40.92 11.24,40.78 11.25,40.05 C11.2340301,39.4485825 11.264118,38.8468249 11.34,38.25 C11.537006,37.1099265 12.2492316,36.1246197 13.27,35.58 L13.58,35.4 C13.58,35.4 13.64,35.44 13.66,35.4 Z" id="Shape" fill="#FFFFFF"></path>
                </g>
            </g>
        </g>
    </g>
</svg>