<?xml version="1.0" encoding="UTF-8"?>
<svg width="43px" height="37px" viewBox="0 0 43 37" version="1.1" xmlns="http://www.w3.org/2000/svg" xmlns:xlink="http://www.w3.org/1999/xlink">
    <!-- Generator: Sketch 42 (36781) - http://www.bohemiancoding.com/sketch -->
    <title>VguPfV.tif</title>
    <desc>Created with Sketch.</desc>
    <defs></defs>
    <g id="Page-1" stroke="none" stroke-width="1" fill="none" fill-rule="evenodd">
        <g id="dashboard_sansNumbers" transform="translate(-1422.000000, -822.000000)" fill-rule="nonzero" fill="#000000">
            <g id="Layer_173" transform="translate(1422.000000, 822.000000)">
                <g id="VguPfV.tif">
                    <path d="M15.5,0.47 L27.5,0.47 L27.73,0.55 C29.1422025,0.840351413 30.2398515,1.95379389 30.51,3.37 C30.5950501,3.94586813 30.6285163,4.52817977 30.61,5.11 L30.61,6.22 L37.26,6.22 C37.5628451,6.19566218 37.8671549,6.19566218 38.17,6.22 C40.6741142,6.57859392 42.5159013,8.75095816 42.46,11.28 L42.46,31.06 C42.4963933,32.4348935 41.9648268,33.7640659 40.9903995,34.734709 C40.0159721,35.7053522 38.6847415,36.2317428 37.31,36.19 L5.52,36.19 C4.13648043,36.2378034 2.79506033,35.7098686 1.81523332,34.7319368 C0.835406307,33.754005 0.304875349,32.4136095 0.35,31.03 L0.35,11.32 C0.347270419,10.9542565 0.380767204,10.5891415 0.45,10.23 C0.952419258,7.86134696 3.07987047,6.19308818 5.5,6.27 L11.92,6.27 L12.38,6.27 L12.38,4.27 C12.3248838,2.77492994 13.1951559,1.39997957 14.57,0.81 C14.8720612,0.676029801 15.1827566,0.562442238 15.5,0.47 Z M27.88,6.21 C27.8836099,6.17342218 27.8836099,6.13657782 27.88,6.1 L27.88,4.42 C27.88,3.49 27.6,3.2 26.67,3.2 L16.24,3.2 C16.0835987,3.18710524 15.9264013,3.18710524 15.77,3.2 C15.4006005,3.2264294 15.1023427,3.51208477 15.06,3.88 L15.06,6.17 L27.88,6.21 Z" id="Shape"></path>
                </g>
            </g>
        </g>
    </g>
</svg>