<?xml version="1.0" encoding="UTF-8"?>
<svg width="41px" height="41px" viewBox="0 0 41 41" version="1.1" xmlns="http://www.w3.org/2000/svg" xmlns:xlink="http://www.w3.org/1999/xlink">
    <!-- Generator: Sketch 42 (36781) - http://www.bohemiancoding.com/sketch -->
    <title>Shape</title>
    <desc>Created with Sketch.</desc>
    <defs></defs>
    <g id="Page-1" stroke="none" stroke-width="1" fill="none" fill-rule="evenodd">
        <g id="dashboard_sansNumbers" transform="translate(-1413.000000, -97.000000)" fill-rule="nonzero" fill="#000000">
            <g id="Layer_219" transform="translate(1413.000000, 97.000000)">
                <g id="jEf2Po.tif">
                    <path d="M40.07,4.45 C39.92,4.96 39.8,5.45 39.6,5.97 C39.1610769,6.99561981 38.5412021,7.93390026 37.77,8.74 C35.27,11.48 32.6533333,14.1033333 29.92,16.61 C29.7073929,16.7698548 29.6158272,17.0445519 29.69,17.3 C31.0233333,23.9666667 32.3566667,30.6333333 33.69,37.3 C33.760486,37.6003394 33.6606684,37.9151486 33.43,38.12 L31.68,39.87 C31.13,40.42 30.61,40.33 30.28,39.63 L23.61,25.4 L22.8,23.67 L19.48,26.49 C17.28,28.36 15.09,30.23 12.89,32.09 C12.5016982,32.3450003 12.340137,32.8338266 12.5,33.27 C12.81,34.5 13.1,35.74 13.41,36.97 C13.6212032,37.808402 13.1993956,38.6773256 12.41,39.03 C12.2182156,39.0660439 12.0200759,39.0451871 11.84,38.97 C11.75,38.97 11.68,38.83 11.6,38.75 L1.96,29.11 C1.48,28.63 1.51,28.47 1.96,27.96 C2.43223518,27.3561917 3.23799189,27.1225223 3.96,27.38 C5.13,27.71 6.33,27.96 7.52,28.25 C7.86402124,28.3666765 8.24425224,28.2546085 8.47,27.97 L16.85,18.11 L16.97,17.94 L16.57,17.74 L1.09,10.49 C0.29,10.12 0.21,9.64 0.84,9.01 C1.47,8.38 1.95,7.92 2.48,7.36 C2.71556937,7.09025843 3.08394529,6.97780683 3.43,7.07 L10.43,8.47 L23.57,11.09 C23.7284383,11.1058418 23.8857918,11.0509511 24,10.94 C26.54,8.21 29.17,5.56 31.93,3.04 C33.0410028,1.90753957 34.4594047,1.12533264 36.01,0.79 C36.6148056,0.677419421 37.2351944,0.677419421 37.84,0.79 C38.9492273,1.00998688 39.7966452,1.9096154 39.95,3.03 C39.95,3.12 40,3.21 40.03,3.3 L40.07,4.45 Z" id="Shape"></path>
                </g>
            </g>
        </g>
    </g>
</svg>